<?xml version="1.0" encoding="utf-8"?><svg viewBox="0 0 224 224" xmlns="http://www.w3.org/2000/svg" xmlns:xlink="http://www.w3.org/1999/xlink"><style>:root>svg{display:none}:root>svg:target{display:block}</style><svg fill="none" viewBox="0 0 72 72" id="advant-1" xmlns="http://www.w3.org/2000/svg"><g clip-path="url(#aa)" stroke-width="2.75" stroke-linecap="round" stroke-linejoin="round"><path d="M27 12v54m-9-54h33a6 6 0 0 1 6 6v36a6 6 0 0 1-6 6H18a3 3 0 0 1-3-3V15a3 3 0 0 1 3-3v0Z" stroke="#3F3A64"/><path d="M39 24h6M39 36h6" stroke="#20AD96"/></g><defs><clipPath id="aa"><path fill="#fff" d="M0 0h72v72H0z"/></clipPath></defs></svg><svg fill="none" viewBox="0 0 72 72" id="advant-2" xmlns="http://www.w3.org/2000/svg"><g clip-path="url(#ba)" stroke-width="2.75" stroke-linecap="round" stroke-linejoin="round"><path d="m62.25 45.5-9.75-9.75H29.75a3.25 3.25 0 0 1-3.25-3.25V13a3.25 3.25 0 0 1 3.25-3.25H59A3.25 3.25 0 0 1 62.25 13v32.5Z" stroke="#3F3A64"/><path d="M39.5 48.75v6.5a3.25 3.25 0 0 1-3.25 3.25H13.5l-9.75 9.75v-32.5A3.25 3.25 0 0 1 7 32.5h6.5" stroke="#20AD96"/></g><defs><clipPath id="ba"><path fill="#fff" transform="translate(-6)" d="M0 0h78v78H0z"/></clipPath></defs></svg><svg fill="none" viewBox="0 0 72 72" id="advant-3" xmlns="http://www.w3.org/2000/svg"><g clip-path="url(#ca)" stroke-width="2.75" stroke-linecap="round" stroke-linejoin="round"><path d="M21 21a6 6 0 1 0 0-12 6 6 0 0 0 0 12ZM15 66V51l-3-3V36a3 3 0 0 1 3-3h12a3 3 0 0 1 3 3v12l-3 3v15" stroke="#20AD96"/><path d="M51 21a6 6 0 1 0 0-12 6 6 0 0 0 0 12ZM45 66V54h-6l6-18a3 3 0 0 1 3-3h6a3 3 0 0 1 3 3l6 18h-6v12" stroke="#3F3A64"/></g><defs><clipPath id="ca"><path fill="#fff" d="M0 0h72v72H0z"/></clipPath></defs></svg><svg fill="none" viewBox="0 0 224 224" id="calendar" xmlns="http://www.w3.org/2000/svg"><g filter="url(#da)"><rect x="72" y="24" width="80" height="80" rx="40" fill="#fff"/><g clip-path="url(#db)"><g clip-path="url(#dc)" stroke-linecap="round" stroke-linejoin="round"><path d="M120 54.667h-16a2.667 2.667 0 0 0-2.666 2.666v16A2.667 2.667 0 0 0 104 76h16a2.667 2.667 0 0 0 2.667-2.667v-16A2.667 2.667 0 0 0 120 54.667ZM117.334 52v5.333M106.666 52v5.333M101.334 62.667h21.333" stroke="#3F3A64" stroke-width="2.75"/><path d="M109.333 68h-2.667v2.667h2.667V68Z" stroke="#20AD96" stroke-width="1.75"/></g></g></g><defs><clipPath id="db"><path fill="#fff" transform="translate(96 48)" d="M0 0h32v32H0z"/></clipPath><clipPath id="dc"><path fill="#fff" transform="translate(96 48)" d="M0 0h32v32H0z"/></clipPath><filter id="da" x="0" y="0" width="224" height="224" filterUnits="userSpaceOnUse" color-interpolation-filters="sRGB"><feFlood flood-opacity="0" result="BackgroundImageFix"/><feColorMatrix in="SourceAlpha" values="0 0 0 0 0 0 0 0 0 0 0 0 0 0 0 0 0 0 127 0" result="hardAlpha"/><feOffset dy="48"/><feGaussianBlur stdDeviation="36"/><feColorMatrix values="0 0 0 0 0.6958 0 0 0 0 0.73116 0 0 0 0 0.7842 0 0 0 0.12 0"/><feBlend in2="BackgroundImageFix" result="effect1_dropShadow_508_5700"/><feBlend in="SourceGraphic" in2="effect1_dropShadow_508_5700" result="shape"/></filter></defs></svg><svg fill="none" viewBox="0 0 161 48" id="catalog" xmlns="http://www.w3.org/2000/svg"><path d="M22.25 2c-12.15 0-22 9.85-22 22s9.85 22 22 22c10.901 0 19.95-7.928 21.696-18.333h-.158c-1.628 6.325-7.37 11-14.205 11-8.1 0-14.666-6.567-14.666-14.667S21.483 9.333 29.583 9.333c6.834 0 12.577 4.675 14.205 11h.158C42.2 9.928 33.15 2 22.25 2Z" fill="#98A2B3"/><path d="M.25 24c0-12.15 9.85-22 22-22C33.151 2 42.2 9.928 43.946 20.333H29.12c-1.628-6.325-7.37-11-14.204-11C6.817 9.333.25 15.9.25 24ZM.25 24c0 12.15 9.85 22 22 22 10.901 0 19.95-7.928 21.696-18.333H29.12c-1.628 6.325-7.37 11-14.204 11C6.817 38.667.25 32.1.25 24Z" fill="#667085"/><path d="M75.689 20.507c-.626-4.524-4.107-7.15-8.62-7.15-5.32 0-9.328 3.879-9.328 10.461 0 6.573 3.958 10.46 9.327 10.46 4.843 0 8.054-3.132 8.62-7.02l-3.718-.02c-.467 2.387-2.416 3.73-4.852 3.73-3.301 0-5.668-2.477-5.668-7.15 0-4.594 2.347-7.149 5.678-7.149 2.476 0 4.415 1.402 4.842 3.838h3.719ZM83.303 34.308c2.396 0 3.828-1.123 4.484-2.406h.12V34h3.46V23.778c0-4.037-3.291-5.25-6.205-5.25-3.211 0-5.677 1.432-6.473 4.216l3.361.477c.358-1.044 1.372-1.938 3.132-1.938 1.67 0 2.585.855 2.585 2.356v.06c0 1.034-1.083 1.084-3.778 1.372-2.963.318-5.797 1.203-5.797 4.643 0 3.003 2.198 4.594 5.11 4.594Zm.934-2.645c-1.5 0-2.575-.686-2.575-2.008 0-1.382 1.203-1.959 2.814-2.188.945-.129 2.834-.368 3.301-.745v1.8c0 1.7-1.372 3.141-3.54 3.141ZM102.613 18.727H99.6v-3.659H96v3.66h-2.167v2.783H96v8.492c-.02 2.873 2.069 4.285 4.773 4.206a7.238 7.238 0 0 0 2.118-.358l-.607-2.814c-.198.05-.606.14-1.054.14-.904 0-1.63-.32-1.63-1.77V21.51h3.013v-2.784ZM110.018 34.308c2.396 0 3.828-1.123 4.484-2.406h.119V34h3.461V23.778c0-4.037-3.292-5.25-6.205-5.25-3.212 0-5.677 1.432-6.473 4.216l3.361.477c.358-1.044 1.372-1.938 3.132-1.938 1.67 0 2.585.855 2.585 2.356v.06c0 1.034-1.084 1.084-3.778 1.372-2.963.318-5.797 1.203-5.797 4.643 0 3.003 2.197 4.594 5.111 4.594Zm.934-2.645c-1.501 0-2.575-.686-2.575-2.008 0-1.382 1.203-1.959 2.814-2.188.945-.129 2.834-.368 3.301-.745v1.8c0 1.7-1.372 3.141-3.54 3.141ZM125.3 13.636h-3.599V34h3.599V13.636ZM135.664 34.298c4.474 0 7.318-3.152 7.318-7.875 0-4.733-2.844-7.895-7.318-7.895-4.475 0-7.319 3.162-7.319 7.895 0 4.723 2.844 7.875 7.319 7.875Zm.02-2.883c-2.476 0-3.689-2.208-3.689-5.002 0-2.794 1.213-5.03 3.689-5.03 2.436 0 3.649 2.236 3.649 5.03s-1.213 5.002-3.649 5.002ZM152.679 40.045c4.126 0 7.169-1.889 7.169-5.797v-15.52h-3.55v2.525h-.199c-.546-1.104-1.69-2.725-4.385-2.725-3.529 0-6.304 2.765-6.304 7.786 0 4.981 2.775 7.467 6.294 7.467 2.616 0 3.839-1.402 4.395-2.525h.179v2.893c0 2.247-1.491 3.172-3.539 3.172-2.168 0-3.123-1.024-3.56-1.92l-3.242.786c.657 2.138 2.854 3.858 6.742 3.858Zm.03-9.088c-2.377 0-3.63-1.85-3.63-4.663 0-2.774 1.233-4.813 3.63-4.813 2.317 0 3.589 1.92 3.589 4.813 0 2.913-1.292 4.663-3.589 4.663Z" fill="#475467"/></svg><svg fill="none" viewBox="0 0 20 20" id="check" xmlns="http://www.w3.org/2000/svg"><path fill="#FAF8F6" d="M0-2h20v24H0z"/><path fill-rule="evenodd" clip-rule="evenodd" d="M10 18.333a8.333 8.333 0 1 0 0-16.666 8.333 8.333 0 0 0 0 16.666ZM10 20C4.477 20 0 15.523 0 10S4.477 0 10 0s10 4.477 10 10-4.477 10-10 10Zm-1.194-7.799L5.589 8.986l-1.178 1.18 4.396 4.393 7.066-7.082-1.18-1.177-5.887 5.901Z" fill="#669180"/></svg><svg fill="none" viewBox="0 0 184 48" id="circooles" xmlns="http://www.w3.org/2000/svg"><path d="M16.214 33.429c8.68 0 15.715-7.036 15.715-15.715 0-.983-.09-1.946-.264-2.88a15.801 15.801 0 0 0-2.88-.262c-8.678 0-15.713 7.035-15.713 15.714 0 .983.09 1.946.263 2.88.933.172 1.896.263 2.88.263Z" fill="#667085"/><path fill-rule="evenodd" clip-rule="evenodd" d="M13.335 33.165C6.03 31.813.5 25.41.5 17.715.5 9.034 7.536 2 16.214 2c7.696 0 14.099 5.531 15.451 12.835a15.801 15.801 0 0 0-2.88-.264c-8.678 0-15.714 7.036-15.714 15.715 0 .983.09 1.946.264 2.88Z" fill="#667085"/><path fill-rule="evenodd" clip-rule="evenodd" d="M16.214 33.429c8.68 0 15.715-7.036 15.715-15.715 0-.983-.09-1.946-.264-2.88C38.97 16.188 44.5 22.592 44.5 30.287 44.5 38.964 37.465 46 28.786 46c-7.695 0-14.099-5.531-15.451-12.835a15.81 15.81 0 0 0 2.88.264Z" fill="#98A2B3"/><path d="M74.728 28.904c-.56 1.81-1.54 3.164-2.94 4.06-1.4.877-3.033 1.316-4.9 1.316-1.83 0-3.416-.383-4.76-1.148-1.325-.765-2.352-1.857-3.08-3.276-.71-1.419-1.064-3.117-1.064-5.096s.364-3.677 1.092-5.096c.728-1.419 1.755-2.51 3.08-3.276 1.325-.765 2.884-1.148 4.676-1.148 1.886 0 3.5.401 4.844 1.204 1.363.784 2.296 1.979 2.8 3.584l-3.5 1.484c-.317-1.12-.802-1.913-1.456-2.38-.653-.485-1.493-.728-2.52-.728-1.53 0-2.753.55-3.668 1.652-.896 1.083-1.344 2.65-1.344 4.704 0 2.035.43 3.603 1.288 4.704.859 1.101 2.1 1.652 3.724 1.652 1.008 0 1.876-.27 2.604-.812.747-.541 1.27-1.363 1.568-2.464l3.556 1.064ZM79.561 17.984c-1.586 0-2.38-.681-2.38-2.044 0-1.381.794-2.072 2.38-2.072 1.587 0 2.38.69 2.38 2.072 0 1.363-.793 2.044-2.38 2.044ZM81.465 20v14H77.63V20h3.836ZM85.532 34V20h3.332l.252 2.744c.354-.952.886-1.69 1.596-2.212.728-.541 1.642-.812 2.744-.812.653 0 1.157.103 1.512.308l-.448 3.22a4.614 4.614 0 0 0-.7-.14 5.13 5.13 0 0 0-1.036-.084c-.579 0-1.13.14-1.652.42-.504.261-.924.672-1.26 1.232-.336.541-.504 1.232-.504 2.072V34h-3.836ZM103.427 19.72c1.866 0 3.313.401 4.34 1.204 1.045.803 1.736 1.773 2.072 2.912l-3.584 1.288c-.374-1.699-1.298-2.548-2.772-2.548-1.064 0-1.895.373-2.492 1.12-.579.747-.868 1.857-.868 3.332 0 1.493.298 2.604.896 3.332.616.71 1.446 1.064 2.492 1.064 1.624 0 2.594-.83 2.912-2.492l3.472 1.12c-.318 1.25-1.027 2.268-2.128 3.052-1.083.784-2.492 1.176-4.228 1.176-1.456 0-2.735-.29-3.836-.868a6.115 6.115 0 0 1-2.52-2.492c-.598-1.083-.896-2.39-.896-3.92 0-1.53.298-2.837.896-3.92a6.344 6.344 0 0 1 2.52-2.492c1.082-.579 2.324-.868 3.724-.868ZM119.259 19.72c1.4 0 2.642.29 3.724.868a6.112 6.112 0 0 1 2.52 2.492c.616 1.083.924 2.39.924 3.92 0 1.53-.308 2.837-.924 3.92a6.111 6.111 0 0 1-2.52 2.492c-1.082.579-2.324.868-3.724.868-1.418 0-2.669-.29-3.752-.868a6.343 6.343 0 0 1-2.52-2.492c-.597-1.083-.896-2.39-.896-3.92 0-1.53.299-2.837.896-3.92a6.344 6.344 0 0 1 2.52-2.492c1.083-.579 2.334-.868 3.752-.868Zm0 2.856c-1.045 0-1.866.373-2.464 1.12-.578.728-.868 1.83-.868 3.304 0 1.475.29 2.585.868 3.332.598.728 1.419 1.092 2.464 1.092 1.027 0 1.83-.364 2.408-1.092.598-.747.896-1.857.896-3.332 0-1.475-.298-2.576-.896-3.304-.578-.747-1.381-1.12-2.408-1.12ZM136.021 19.72c1.4 0 2.642.29 3.724.868a6.112 6.112 0 0 1 2.52 2.492c.616 1.083.924 2.39.924 3.92 0 1.53-.308 2.837-.924 3.92a6.111 6.111 0 0 1-2.52 2.492c-1.082.579-2.324.868-3.724.868-1.418 0-2.669-.29-3.752-.868a6.343 6.343 0 0 1-2.52-2.492c-.597-1.083-.896-2.39-.896-3.92 0-1.53.299-2.837.896-3.92a6.344 6.344 0 0 1 2.52-2.492c1.083-.579 2.334-.868 3.752-.868Zm0 2.856c-1.045 0-1.866.373-2.464 1.12-.578.728-.868 1.83-.868 3.304 0 1.475.29 2.585.868 3.332.598.728 1.419 1.092 2.464 1.092 1.027 0 1.83-.364 2.408-1.092.598-.747.896-1.857.896-3.332 0-1.475-.298-2.576-.896-3.304-.578-.747-1.381-1.12-2.408-1.12ZM150.179 13.868v15.82c0 .653.112 1.11.336 1.372.224.261.597.392 1.12.392.317 0 .579-.019.784-.056a5.33 5.33 0 0 0 .784-.224l-.336 2.52c-.317.187-.719.327-1.204.42a5.98 5.98 0 0 1-1.4.168c-1.363 0-2.361-.327-2.996-.98-.616-.672-.924-1.736-.924-3.192v-16.24h3.836ZM161.836 34.28c-2.202 0-3.966-.635-5.292-1.904-1.325-1.288-1.988-3.08-1.988-5.376 0-1.53.299-2.837.896-3.92a6.165 6.165 0 0 1 2.492-2.492c1.083-.579 2.315-.868 3.696-.868 1.419 0 2.623.29 3.612.868a5.656 5.656 0 0 1 2.268 2.324c.523.97.784 2.081.784 3.332 0 .373-.009.728-.028 1.064a10.01 10.01 0 0 1-.084.896h-9.884c.15 1.083.523 1.895 1.12 2.436.616.523 1.41.784 2.38.784.822 0 1.484-.159 1.988-.476a3.22 3.22 0 0 0 1.176-1.316l3.052 1.176c-.448 1.101-1.232 1.96-2.352 2.576-1.12.597-2.398.896-3.836.896Zm-.224-11.732c-1.81 0-2.902.999-3.276 2.996h6.3c-.112-.97-.429-1.708-.952-2.212-.504-.523-1.194-.784-2.072-.784ZM177.155 34.28c-1.419 0-2.716-.252-3.892-.756-1.157-.504-2.1-1.213-2.828-2.128l2.212-2.24a5.266 5.266 0 0 0 1.792 1.652c.747.43 1.633.644 2.66.644.728 0 1.307-.103 1.736-.308.448-.224.672-.57.672-1.036 0-.299-.102-.55-.308-.756-.205-.224-.616-.401-1.232-.532l-2.464-.504c-1.624-.336-2.781-.84-3.472-1.512-.672-.69-1.008-1.577-1.008-2.66 0-.765.224-1.484.672-2.156.467-.672 1.157-1.213 2.072-1.624.915-.43 2.053-.644 3.416-.644 2.837 0 4.872.868 6.104 2.604l-2.296 2.24a4.009 4.009 0 0 0-1.624-1.484 4.28 4.28 0 0 0-2.072-.532c-1.643 0-2.464.457-2.464 1.372 0 .299.131.56.392.784.261.205.737.383 1.428.532l2.856.588c1.381.28 2.371.756 2.968 1.428.597.653.896 1.447.896 2.38 0 1.344-.541 2.455-1.624 3.332-1.064.877-2.595 1.316-4.592 1.316Z" fill="#475467"/></svg><svg fill="none" viewBox="0 0 20 24" id="close" xmlns="http://www.w3.org/2000/svg"><path fill-rule="evenodd" clip-rule="evenodd" d="M10 20.333a8.333 8.333 0 1 0 0-16.666 8.333 8.333 0 0 0 0 16.666ZM10 22C4.477 22 0 17.523 0 12S4.477 2 10 2s10 4.477 10 10-4.477 10-10 10Z" fill="#EB4646"/><path d="M10 11.111 13.111 8l.889.889L10.889 12 14 15.111l-.889.889L10 12.889 6.889 16 6 15.111 9.111 12 6 8.889 6.889 8 10 11.111Z" fill="#EB4646"/></svg><svg fill="none" viewBox="0 0 101 17" id="decor-black" xmlns="http://www.w3.org/2000/svg"><path d="M26.26 4.323 38.347 17 50.523 4.323 62.654 17 74.74 4.323 86.87 17 101 2.234 98.816 0 86.87 12.483 74.925 0l-.186.194L74.6 0 62.655 12.483 50.663 0l-.14.194L50.337 0 38.346 12.483 26.4 0l-.14.194L26.076 0 14.13 12.483 2.185 0 0 2.234 14.13 17 26.26 4.323Z" fill="#3F3A64"/></svg><svg fill="none" viewBox="0 0 101 17" id="decor-green" xmlns="http://www.w3.org/2000/svg"><path d="M26.26 4.323 38.347 17 50.523 4.323 62.654 17 74.74 4.323 86.87 17 101 2.234 98.816 0 86.87 12.483 74.925 0l-.186.194L74.6 0 62.655 12.483 50.663 0l-.14.194L50.337 0 38.346 12.483 26.4 0l-.14.194L26.076 0 14.13 12.483 2.185 0 0 2.234 14.13 17 26.26 4.323Z" fill="#20AD96"/></svg><svg viewBox="0 0 24 24" id="face" xmlns="http://www.w3.org/2000/svg"><g clip-path="url(#ka)"><path d="M24 12c0-6.627-5.373-12-12-12S0 5.373 0 12c0 5.99 4.388 10.954 10.125 11.854V15.47H7.078V12h3.047V9.356c0-3.007 1.792-4.668 4.533-4.668 1.312 0 2.686.234 2.686.234v2.953H15.83c-1.491 0-1.956.925-1.956 1.875V12h3.328l-.532 3.469h-2.796v8.385C19.612 22.954 24 17.99 24 12Z"/></g><defs><clipPath id="ka"><path fill="#fff" d="M0 0h24v24H0z"/></clipPath></defs></svg><svg fill="none" viewBox="0 0 56 56" id="feat-1" xmlns="http://www.w3.org/2000/svg"><rect x="4" y="4" width="48" height="48" rx="24" fill="#FAF8F6"/><rect x="4" y="4" width="48" height="48" rx="24" stroke="#FAF8F6" stroke-width="8"/><g clip-path="url(#la)"><g clip-path="url(#lb)" stroke-width="2" stroke-linecap="round" stroke-linejoin="round"><path d="m36.021 30.903-2.979-2.98h-6.951a.993.993 0 0 1-.993-.992v-5.959a.993.993 0 0 1 .993-.993h8.937a.993.993 0 0 1 .993.993v9.93Z" stroke="#3F3A64"/><path d="M29.07 31.896v1.986a.993.993 0 0 1-.993.993h-6.951l-2.98 2.98v-9.931a.993.993 0 0 1 .994-.994h1.986" stroke="#20AD96"/></g></g><defs><clipPath id="la"><path fill="#fff" transform="translate(17 17)" d="M0 0h22v22H0z"/></clipPath><clipPath id="lb"><path fill="#fff" transform="translate(15.167 17)" d="M0 0h23.833v23.833H0z"/></clipPath></defs></svg><svg fill="none" viewBox="0 0 56 56" id="feat-2" xmlns="http://www.w3.org/2000/svg"><rect x="4" y="4" width="48" height="48" rx="24" fill="#FAF8F6"/><rect x="4" y="4" width="48" height="48" rx="24" stroke="#FAF8F6" stroke-width="8"/><g clip-path="url(#ma)" stroke-linecap="round" stroke-linejoin="round"><path d="M33.5 21.583h-11c-1.012 0-1.833.821-1.833 1.834v11c0 1.012.82 1.833 1.833 1.833h11c1.013 0 1.834-.82 1.834-1.833v-11c0-1.013-.821-1.834-1.834-1.834ZM31.667 19.75v3.667M24.333 19.75v3.667M20.667 27.083h14.667" stroke="#3F3A64" stroke-width="2"/><path d="M26.166 30.75h-1.833v1.833h1.833V30.75Z" stroke="#20AD96"/></g><defs><clipPath id="ma"><path fill="#fff" transform="translate(17 17)" d="M0 0h22v22H0z"/></clipPath></defs></svg><svg fill="none" viewBox="0 0 56 56" id="feat-3" xmlns="http://www.w3.org/2000/svg"><rect x="4" y="4" width="48" height="48" rx="24" fill="#FAF8F6"/><rect x="4" y="4" width="48" height="48" rx="24" stroke="#FAF8F6" stroke-width="8"/><g clip-path="url(#na)" stroke-width="2" stroke-linecap="round" stroke-linejoin="round"><path d="M28 19.75a8.251 8.251 0 0 1 7.886 10.68 4.125 4.125 0 0 1-5.457 5.456 8.25 8.25 0 0 1-10.315-10.315 4.126 4.126 0 0 1 5.456-5.458A8.241 8.241 0 0 1 28 19.75v0Z" stroke="#3F3A64"/><path d="M24.333 30.292c.458 1.833 2.162 2.291 3.667 2.291 2.663 0 3.666-1.088 3.666-2.291C31.666 28.914 29.9 28 28 28s-3.667-.914-3.667-2.292c0-1.203 1.004-2.291 3.667-2.291 1.505 0 3.208.458 3.666 2.291" stroke="#20AD96"/></g><defs><clipPath id="na"><path fill="#fff" transform="translate(17 17)" d="M0 0h22v22H0z"/></clipPath></defs></svg><svg fill="none" viewBox="0 0 56 56" id="feat-4" xmlns="http://www.w3.org/2000/svg"><rect x="4" y="4" width="48" height="48" rx="24" fill="#FAF8F6"/><rect x="4" y="4" width="48" height="48" rx="24" stroke="#FAF8F6" stroke-width="8"/><g clip-path="url(#oa)" stroke-linecap="round" stroke-linejoin="round"><path d="M33.319 32.851s.07-.05.183-.137c1.69-1.306 2.748-3.199 2.748-5.306 0-3.929-3.694-7.117-8.248-7.117-4.556 0-8.252 3.188-8.252 7.117 0 3.93 3.694 7.009 8.25 7.009.389 0 1.027-.026 1.914-.077 1.157.751 2.845 1.368 4.323 1.368.457 0 .673-.376.38-.759-.446-.546-1.06-1.421-1.298-2.099v.001Z" stroke="#333461" stroke-width="2"/><path d="M23.875 29.375a5.81 5.81 0 0 0 8.25 0" stroke="#20AD96" stroke-width="1.5"/></g><defs><clipPath id="oa"><path fill="#fff" transform="translate(17 17)" d="M0 0h22v22H0z"/></clipPath></defs></svg><svg viewBox="0 0 24 24" id="in" xmlns="http://www.w3.org/2000/svg"><path d="M22.223 0H1.772C.792 0 0 .773 0 1.73v20.536C0 23.222.792 24 1.772 24h20.451c.98 0 1.777-.778 1.777-1.73V1.73C24 .773 23.203 0 22.223 0ZM7.12 20.452H3.558V8.995H7.12v11.457ZM5.34 7.434a2.064 2.064 0 1 1 0-4.125 2.063 2.063 0 0 1 0 4.125Zm15.112 13.018h-3.558v-5.57c0-1.326-.024-3.037-1.852-3.037-1.851 0-2.133 1.449-2.133 2.944v5.663H9.356V8.995h3.413v1.566h.047c.473-.9 1.636-1.852 3.365-1.852 3.605 0 4.27 2.372 4.27 5.457v6.286Z"/></svg><svg fill="none" viewBox="0 0 146 48" id="layers" xmlns="http://www.w3.org/2000/svg"><path d="M13.277 22.318c.823-3.068 3.977-6.222 7.045-7.044l19.129-5.126c3.068-.823 4.889.998 4.067 4.066l-5.127 19.13c-.822 3.067-3.976 6.221-7.044 7.044l-19.13 5.126c-3.067.822-4.888-.998-4.066-4.067l5.127-19.129Z" fill="#98A2B3"/><path d="M5.609 14.65c.822-3.069 3.976-6.223 7.044-7.045l19.13-5.126c3.067-.823 4.888.998 4.066 4.066l-5.126 19.13c-.823 3.067-3.976 6.221-7.045 7.044L4.55 37.845c-3.068.822-4.889-.998-4.067-4.067L5.61 14.65Z" fill="#667085"/><path d="M61.292 31.424h6.58V34H58.1V14.54h3.192v16.884ZM69.478 26.216c0-1.55.317-2.921.952-4.116.653-1.195 1.53-2.119 2.631-2.772a7.05 7.05 0 0 1 3.696-1.008c1.214 0 2.268.243 3.164.728.915.467 1.643 1.055 2.184 1.764v-2.24h3.22V34h-3.22v-2.296c-.54.728-1.278 1.335-2.212 1.82-.933.485-1.997.728-3.192.728a6.854 6.854 0 0 1-3.64-1.008c-1.1-.69-1.978-1.643-2.632-2.856-.634-1.232-.951-2.623-.951-4.172Zm12.628.056c0-1.064-.224-1.988-.672-2.772-.43-.784-1-1.381-1.709-1.792a4.506 4.506 0 0 0-2.295-.616c-.822 0-1.587.205-2.297.616-.709.392-1.287.98-1.736 1.764-.429.765-.644 1.68-.644 2.744 0 1.064.215 1.997.644 2.8.448.803 1.027 1.419 1.736 1.848.729.41 1.494.616 2.297.616.82 0 1.586-.205 2.295-.616.71-.41 1.28-1.008 1.709-1.792.448-.803.672-1.736.672-2.8ZM103.406 18.572l-9.464 22.68h-3.304l3.136-7.504-6.076-15.176h3.556l4.34 11.76 4.508-11.76h3.304ZM119.955 25.908c0 .579-.037 1.101-.112 1.568h-11.788c.093 1.232.551 2.221 1.372 2.968.821.747 1.829 1.12 3.024 1.12 1.717 0 2.931-.719 3.64-2.156h3.444c-.467 1.419-1.316 2.585-2.548 3.5-1.213.896-2.725 1.344-4.536 1.344-1.475 0-2.8-.327-3.976-.98a7.326 7.326 0 0 1-2.744-2.8c-.653-1.213-.98-2.613-.98-4.2 0-1.587.317-2.977.952-4.172.653-1.213 1.559-2.147 2.716-2.8 1.176-.653 2.52-.98 4.032-.98 1.456 0 2.753.317 3.892.952a6.704 6.704 0 0 1 2.66 2.688c.635 1.139.952 2.455.952 3.948Zm-3.332-1.008c-.019-1.176-.439-2.119-1.26-2.828-.821-.71-1.839-1.064-3.052-1.064-1.101 0-2.044.355-2.828 1.064-.784.69-1.251 1.633-1.4 2.828h8.54ZM126.288 20.812a4.943 4.943 0 0 1 1.848-1.82c.784-.448 1.708-.672 2.772-.672v3.304h-.812c-1.25 0-2.202.317-2.856.952-.634.635-.952 1.736-.952 3.304V34h-3.192V18.572h3.192v2.24ZM139.442 34.252c-1.213 0-2.305-.215-3.276-.644-.952-.448-1.708-1.045-2.268-1.792a4.538 4.538 0 0 1-.896-2.548h3.304c.056.653.364 1.204.924 1.652.579.43 1.298.644 2.156.644.896 0 1.587-.168 2.072-.504.504-.355.756-.803.756-1.344 0-.579-.28-1.008-.84-1.288-.541-.28-1.409-.588-2.604-.924-1.157-.317-2.1-.625-2.828-.924a5.08 5.08 0 0 1-1.904-1.372c-.522-.616-.784-1.428-.784-2.436 0-.821.243-1.568.728-2.24.486-.69 1.176-1.232 2.072-1.624.915-.392 1.96-.588 3.136-.588 1.755 0 3.164.448 4.228 1.344 1.083.877 1.662 2.081 1.736 3.612h-3.192c-.056-.69-.336-1.241-.84-1.652-.504-.41-1.185-.616-2.044-.616-.84 0-1.484.159-1.932.476-.448.317-.672.737-.672 1.26 0 .41.15.756.448 1.036.299.28.663.504 1.092.672.43.15 1.064.345 1.904.588 1.12.299 2.035.607 2.744.924a4.962 4.962 0 0 1 1.876 1.344c.523.597.794 1.39.812 2.38 0 .877-.242 1.661-.728 2.352-.485.69-1.176 1.232-2.072 1.624-.877.392-1.913.588-3.108.588Z" fill="#475467"/></svg><svg fill="none" viewBox="0 0 149 28" id="logo" xmlns="http://www.w3.org/2000/svg"><path d="M16.262 3.012a4.59 4.59 0 0 1 3.968 2.282l3.87 6.656a4.589 4.589 0 0 1 0 4.615l-3.87 6.656a4.59 4.59 0 0 1-3.968 2.282H8.46a4.59 4.59 0 0 1-3.968-2.282l-3.87-6.656a4.59 4.59 0 0 1 0-4.615l3.87-6.656a4.59 4.59 0 0 1 3.968-2.282h7.8Z" fill="#20AD96"/><path d="m7.832 19.478 2.519-2.519h5.878a.84.84 0 0 0 .84-.84v-5.038a.84.84 0 0 0-.84-.84H8.671a.84.84 0 0 0-.84.84v8.397Z" stroke="#fff" stroke-width="1.606" stroke-linecap="round" stroke-linejoin="round"/><path d="M36.416 19.478h-2.351V8.028h2.35v4.786h4.955V8.028h2.351v11.45h-2.35v-4.61h-4.955v4.61Zm15.36 0h-1.909l-.114-.908a2.9 2.9 0 0 1-1.039.786 3.309 3.309 0 0 1-1.358.275c-.535 0-1.01-.102-1.428-.305a2.487 2.487 0 0 1-.985-.855 2.227 2.227 0 0 1-.358-1.245c0-.488.13-.918.389-1.29.26-.371.616-.661 1.069-.87.458-.214.977-.32 1.557-.32.34 0 .682.038 1.023.114.346.076.666.183.962.32v-.198a1.23 1.23 0 0 0-.26-.786 1.613 1.613 0 0 0-.702-.52 2.573 2.573 0 0 0-.993-.183c-.35 0-.7.056-1.045.168-.341.112-.657.28-.947.504l-.595-1.671a7.3 7.3 0 0 1 1.557-.596 6.097 6.097 0 0 1 1.534-.206c.743 0 1.387.148 1.931.443.545.29.965.702 1.26 1.236.3.53.45 1.158.45 1.886v4.221Zm-3.94-1.534c.29 0 .568-.064.833-.19.264-.128.478-.301.64-.52.169-.219.258-.46.268-.725v-.054a2.661 2.661 0 0 0-.748-.35 2.684 2.684 0 0 0-.825-.13c-.417 0-.758.091-1.023.274-.264.184-.396.42-.396.71 0 .189.053.359.16.512.112.147.262.264.45.35.188.082.402.123.642.123Zm7.223 5.351H52.86v-11.45h1.924l.114 1.038a3.494 3.494 0 0 1 2.664-1.19c.703-.001 1.326.172 1.87.518.545.341.975.812 1.29 1.412.316.596.474 1.275.474 2.039 0 .758-.158 1.437-.473 2.038a3.664 3.664 0 0 1-1.29 1.42c-.545.34-1.168.511-1.87.511-.5 0-.962-.09-1.39-.267a3.566 3.566 0 0 1-1.114-.756v4.687Zm1.946-5.634c.382 0 .718-.084 1.008-.251.29-.173.516-.41.68-.71.167-.306.251-.652.251-1.038 0-.392-.084-.738-.252-1.039-.163-.3-.39-.537-.68-.71a1.914 1.914 0 0 0-1-.26 1.95 1.95 0 0 0-1.656.879c-.173.274-.272.59-.297.946v.382a1.89 1.89 0 0 0 .985 1.573c.284.152.605.229.961.229Zm7.153 5.634H61.96v-11.45h1.923l.115 1.038a3.494 3.494 0 0 1 2.664-1.19c.703-.001 1.326.172 1.87.518.545.341.975.812 1.29 1.412.316.596.474 1.275.474 2.039 0 .758-.158 1.437-.473 2.038a3.666 3.666 0 0 1-1.29 1.42c-.545.34-1.168.511-1.87.511-.5 0-.963-.09-1.39-.267a3.572 3.572 0 0 1-1.115-.756v4.687Zm1.947-5.634c.382 0 .718-.084 1.008-.251.29-.173.516-.41.679-.71.168-.306.252-.652.252-1.038 0-.392-.084-.738-.252-1.039-.163-.3-.39-.537-.68-.71a1.915 1.915 0 0 0-1-.26c-.356 0-.676.08-.961.237a1.867 1.867 0 0 0-.695.642c-.173.274-.272.59-.298.946v.382c.026.346.125.657.298.931.173.27.402.484.687.642.285.152.606.229.962.229Zm8.703 5.634h-2.336l1.588-3.824-3.855-7.626h2.473l2.42 5.13 2.122-5.13h2.328l-4.74 11.45Zm18.1-5.252a5.81 5.81 0 0 1-1.9 1.222 6.337 6.337 0 0 1-2.39.442 6.38 6.38 0 0 1-2.404-.442 5.899 5.899 0 0 1-1.916-1.252c-.54-.54-.96-1.17-1.26-1.894a6.108 6.108 0 0 1-.45-2.366c0-.855.15-1.644.45-2.366.3-.728.72-1.36 1.26-1.893a5.798 5.798 0 0 1 1.916-1.245c.733-.3 1.534-.45 2.404-.45.855 0 1.647.147 2.375.443a5.747 5.747 0 0 1 1.9 1.229l-1.64 1.649c-.322-.392-.714-.7-1.177-.924a3.299 3.299 0 0 0-1.496-.344 3.415 3.415 0 0 0-2.565 1.122 3.728 3.728 0 0 0-.755 1.237 4.321 4.321 0 0 0-.267 1.534c0 .56.089 1.077.267 1.55.178.473.43.888.755 1.244.326.351.705.626 1.138.825.437.193.913.29 1.427.29a3.36 3.36 0 0 0 1.496-.336c.458-.229.848-.54 1.168-.931l1.665 1.656Zm4.375 1.588c-.784 0-1.486-.17-2.107-.512a3.87 3.87 0 0 1-1.465-1.412c-.351-.6-.527-1.282-.527-2.046 0-.758.176-1.435.527-2.03.356-.6.844-1.074 1.465-1.42.621-.346 1.323-.519 2.107-.519.784 0 1.481.173 2.092.52.615.345 1.099.818 1.45 1.419.356.595.535 1.272.535 2.03 0 .764-.179 1.446-.535 2.046a3.827 3.827 0 0 1-1.45 1.412c-.61.341-1.308.512-2.092.512Zm-.007-1.962c.35 0 .664-.086.939-.26.28-.177.498-.417.656-.717.163-.305.244-.654.244-1.046 0-.376-.081-.715-.244-1.015a1.803 1.803 0 0 0-.656-.71 1.688 1.688 0 0 0-.94-.267c-.356 0-.674.089-.954.267a1.88 1.88 0 0 0-.656.71c-.158.3-.237.639-.237 1.015 0 .392.079.74.237 1.046.163.3.382.54.656.718.28.173.598.26.955.26Zm11.664 1.81h-1.908l-.115-.91a2.9 2.9 0 0 1-1.038.787 3.306 3.306 0 0 1-1.358.275c-.535 0-1.011-.102-1.428-.305a2.487 2.487 0 0 1-.985-.855 2.228 2.228 0 0 1-.359-1.245c0-.488.13-.918.39-1.29a2.594 2.594 0 0 1 1.068-.87c.458-.214.978-.32 1.558-.32.341 0 .682.038 1.023.114.346.076.666.183.962.32v-.198a1.23 1.23 0 0 0-.26-.786 1.613 1.613 0 0 0-.702-.52 2.578 2.578 0 0 0-.993-.183c-.351 0-.699.056-1.046.168a3.14 3.14 0 0 0-.946.504l-.596-1.671a7.314 7.314 0 0 1 1.558-.596 6.093 6.093 0 0 1 1.534-.206c.743 0 1.387.148 1.931.443.545.29.965.702 1.26 1.236.3.53.45 1.158.45 1.886v4.221Zm-3.939-1.535c.29 0 .568-.064.832-.19.265-.128.479-.301.642-.52.168-.219.257-.46.267-.725v-.054a2.658 2.658 0 0 0-.748-.35 2.688 2.688 0 0 0-.825-.13c-.417 0-.758.091-1.023.274-.264.184-.397.42-.397.71 0 .189.054.359.161.512.112.147.262.264.45.35a1.6 1.6 0 0 0 .641.123Zm11.787.32a3.933 3.933 0 0 1-1.366 1.008 4.34 4.34 0 0 1-1.779.359c-.783 0-1.486-.17-2.107-.512a3.878 3.878 0 0 1-1.458-1.42c-.351-.6-.526-1.28-.526-2.038 0-.763.175-1.442.526-2.038.357-.6.843-1.071 1.458-1.412.621-.346 1.324-.519 2.107-.519.641 0 1.232.12 1.771.359.54.239.995.57 1.367.992l-1.29 1.351a2.007 2.007 0 0 0-.756-.534 2.323 2.323 0 0 0-.947-.198c-.381 0-.722.086-1.023.259-.3.168-.536.402-.71.702a1.985 1.985 0 0 0-.259 1.023c0 .392.086.74.259 1.046.174.305.41.545.71.718.301.168.642.252 1.023.252.331 0 .649-.064.954-.191.306-.133.555-.313.749-.542l1.297 1.336Zm.718 1.214V8.028h2.191v4.717c.55-.702 1.339-1.053 2.367-1.053.962 0 1.712.298 2.252.893.539.59.809 1.417.809 2.481v4.412h-2.191v-3.832c0-.636-.14-1.127-.42-1.473-.28-.346-.672-.52-1.175-.52-.514 0-.916.176-1.207.527-.29.352-.435.84-.435 1.466v3.832h-2.191Zm9.81-9.458a.98.98 0 0 1-.732-.305 1.02 1.02 0 0 1-.298-.74c0-.29.099-.535.298-.733a.98.98 0 0 1 .732-.306c.296 0 .542.102.741.306a.985.985 0 0 1 .305.732c0 .29-.102.537-.305.74a.993.993 0 0 1-.741.306Zm1.1 9.458h-2.191v-7.633h2.191v7.633Zm8.878 0h-2.191V15.57c0-.595-.142-1.061-.427-1.397-.28-.341-.664-.511-1.153-.511-.509 0-.913.178-1.214.534-.295.351-.442.83-.442 1.435v3.847h-2.191v-7.633h1.771l.076 1.221a2.772 2.772 0 0 1 1.076-1.023c.443-.234.965-.351 1.565-.351.972 0 1.736.3 2.291.9.559.596.839 1.42.839 2.474v4.412Zm4.207.092c-.687 0-1.303-.17-1.847-.512a3.629 3.629 0 0 1-1.283-1.404c-.31-.596-.466-1.27-.466-2.023 0-.758.156-1.433.466-2.023.31-.59.738-1.056 1.283-1.397.544-.346 1.162-.519 1.854-.519.54 0 1.034.107 1.481.32.453.21.843.5 1.168.87l.1-1.037h1.923v7.42c0 .844-.185 1.58-.557 2.206a3.689 3.689 0 0 1-1.557 1.458c-.672.346-1.458.519-2.359.519-1.252 0-2.387-.392-3.405-1.176l.886-1.786c.677.667 1.466 1 2.366 1 .484 0 .906-.097 1.268-.29.366-.194.651-.463.854-.81.209-.345.313-.747.313-1.205v-.626a3.535 3.535 0 0 1-1.106.748 3.521 3.521 0 0 1-1.382.267Zm.565-1.954c.356 0 .679-.077.969-.23a1.763 1.763 0 0 0 .954-1.595v-.328c0-.351-.089-.664-.267-.939a1.792 1.792 0 0 0-.694-.641 1.954 1.954 0 0 0-.962-.237c-.367 0-.695.087-.985.26a1.88 1.88 0 0 0-.687.71 2.016 2.016 0 0 0-.252 1.015c0 .382.084.723.252 1.023.168.3.397.537.687.71.29.168.618.252.985.252Z" fill="#333461"/></svg><svg fill="none" viewBox="0 0 36 36" id="message" xmlns="http://www.w3.org/2000/svg"><g clip-path="url(#sa)" stroke-width="2.75" stroke-linecap="round" stroke-linejoin="round"><path d="m31.125 22.75-4.875-4.875H14.875a1.625 1.625 0 0 1-1.625-1.625V6.5a1.625 1.625 0 0 1 1.625-1.625H29.5A1.625 1.625 0 0 1 31.125 6.5v16.25Z" stroke="#3F3A64"/><path d="M19.75 24.375v3.25a1.625 1.625 0 0 1-1.625 1.625H6.75l-4.875 4.875v-16.25A1.625 1.625 0 0 1 3.5 16.25h3.25" stroke="#20AD96"/></g><defs><clipPath id="sa"><path fill="#fff" transform="translate(-3)" d="M0 0h39v39H0z"/></clipPath></defs></svg><svg fill="none" viewBox="0 0 187 48" id="quotient" xmlns="http://www.w3.org/2000/svg"><path fill-rule="evenodd" clip-rule="evenodd" d="M22 36.467c6.885 0 12.467-5.582 12.467-12.467 0-6.885-5.582-12.467-12.467-12.467-6.885 0-12.467 5.582-12.467 12.467 0 6.885 5.582 12.467 12.467 12.467ZM22 46c12.15 0 22-9.85 22-22S34.15 2 22 2 0 11.85 0 24s9.85 22 22 22Z" fill="#667085"/><path d="M22.252 24.482a5.867 5.867 0 0 1 8.296 0L41.956 35.89a5.867 5.867 0 1 1-8.297 8.296L22.253 32.778a5.867 5.867 0 0 1 0-8.296Z" fill="#98A2B3"/><path d="m25.455 35.982 7.245 7.245a22.105 22.105 0 0 0 8.36-8.233l-7.186-7.186a12.494 12.494 0 0 1-8.42 8.174Z" fill="#667085"/><path d="M79.52 36.1a6.24 6.24 0 0 1-2.324 1.792c-.896.41-1.885.616-2.968.616-1.456 0-2.772-.317-3.948-.952-1.176-.616-2.52-1.717-4.032-3.304-1.773-.224-3.36-.793-4.76-1.708a9.81 9.81 0 0 1-3.248-3.528c-.765-1.456-1.148-3.061-1.148-4.816 0-1.923.457-3.65 1.372-5.18.933-1.55 2.212-2.763 3.836-3.64 1.643-.877 3.481-1.316 5.516-1.316s3.864.439 5.488 1.316c1.624.877 2.903 2.09 3.836 3.64.933 1.53 1.4 3.257 1.4 5.18 0 2.277-.644 4.275-1.932 5.992-1.27 1.717-2.959 2.912-5.068 3.584.467.485.915.83 1.344 1.036a3.15 3.15 0 0 0 1.428.336c1.213 0 2.277-.485 3.192-1.456L79.52 36.1ZM61.684 24.2c0 1.213.261 2.296.784 3.248a5.928 5.928 0 0 0 2.212 2.24c.933.523 1.979.784 3.136.784s2.203-.261 3.136-.784a5.726 5.726 0 0 0 2.184-2.24c.541-.952.812-2.035.812-3.248s-.27-2.296-.812-3.248a5.534 5.534 0 0 0-2.184-2.212c-.933-.541-1.979-.812-3.136-.812s-2.203.27-3.136.812a5.726 5.726 0 0 0-2.212 2.212c-.523.952-.784 2.035-.784 3.248ZM96.817 18.936V34h-4.144v-1.792a5.945 5.945 0 0 1-2.072 1.512 6.675 6.675 0 0 1-2.604.504c-1.979 0-3.547-.57-4.704-1.708-1.157-1.139-1.736-2.828-1.736-5.068v-8.512h4.368v7.868c0 2.427 1.017 3.64 3.052 3.64 1.045 0 1.885-.336 2.52-1.008.635-.69.952-1.708.952-3.052v-7.448h4.368ZM108.032 34.224c-1.587 0-3.015-.327-4.284-.98-1.251-.672-2.231-1.596-2.94-2.772-.71-1.176-1.064-2.51-1.064-4.004 0-1.493.354-2.828 1.064-4.004.709-1.176 1.689-2.09 2.94-2.744 1.269-.672 2.697-1.008 4.284-1.008 1.586 0 3.005.336 4.256 1.008a7.323 7.323 0 0 1 2.94 2.744c.709 1.176 1.064 2.51 1.064 4.004 0 1.493-.355 2.828-1.064 4.004-.71 1.176-1.69 2.1-2.94 2.772-1.251.653-2.67.98-4.256.98Zm0-3.584c1.12 0 2.034-.373 2.744-1.12.728-.765 1.092-1.783 1.092-3.052 0-1.27-.364-2.277-1.092-3.024-.71-.765-1.624-1.148-2.744-1.148s-2.044.383-2.772 1.148c-.728.747-1.092 1.755-1.092 3.024 0 1.27.364 2.287 1.092 3.052.728.747 1.652 1.12 2.772 1.12ZM128.927 33.272c-.429.317-.961.56-1.596.728a8.296 8.296 0 0 1-1.96.224c-1.792 0-3.182-.457-4.172-1.372-.97-.915-1.456-2.259-1.456-4.032v-6.188h-2.324v-3.36h2.324v-3.668h4.368v3.668h3.752v3.36h-3.752v6.132c0 .635.159 1.13.476 1.484.336.336.803.504 1.4.504.691 0 1.279-.187 1.764-.56l1.176 3.08ZM131.379 18.936h4.368V34h-4.368V18.936Zm2.184-2.1c-.802 0-1.456-.233-1.96-.7a2.27 2.27 0 0 1-.756-1.736c0-.69.252-1.27.756-1.736.504-.467 1.158-.7 1.96-.7.803 0 1.456.224 1.96.672.504.448.756 1.008.756 1.68 0 .728-.252 1.335-.756 1.82-.504.467-1.157.7-1.96.7ZM154.557 26.524c0 .056-.028.448-.084 1.176h-11.396c.206.933.691 1.67 1.456 2.212.766.541 1.718.812 2.856.812.784 0 1.475-.112 2.072-.336a5.197 5.197 0 0 0 1.708-1.12l2.324 2.52c-1.418 1.624-3.49 2.436-6.216 2.436-1.698 0-3.201-.327-4.508-.98-1.306-.672-2.314-1.596-3.024-2.772-.709-1.176-1.064-2.51-1.064-4.004 0-1.475.346-2.8 1.036-3.976a7.357 7.357 0 0 1 2.884-2.772c1.232-.672 2.604-1.008 4.116-1.008 1.475 0 2.81.317 4.004.952a6.832 6.832 0 0 1 2.8 2.744c.691 1.176 1.036 2.548 1.036 4.116Zm-7.812-4.508c-.989 0-1.82.28-2.492.84-.672.56-1.082 1.325-1.232 2.296h7.42c-.149-.952-.56-1.708-1.232-2.268-.672-.579-1.493-.868-2.464-.868ZM166.621 18.712c1.867 0 3.37.56 4.508 1.68 1.158 1.12 1.736 2.781 1.736 4.984V34h-4.368v-7.952c0-1.195-.261-2.081-.784-2.66-.522-.597-1.278-.896-2.268-.896-1.101 0-1.978.345-2.632 1.036-.653.672-.98 1.68-.98 3.024V34h-4.368V18.936h4.172V20.7a5.663 5.663 0 0 1 2.156-1.456c.859-.355 1.802-.532 2.828-.532ZM186.541 33.272c-.43.317-.962.56-1.596.728-.616.15-1.27.224-1.96.224-1.792 0-3.183-.457-4.172-1.372-.971-.915-1.456-2.259-1.456-4.032v-6.188h-2.324v-3.36h2.324v-3.668h4.368v3.668h3.752v3.36h-3.752v6.132c0 .635.158 1.13.476 1.484.336.336.802.504 1.4.504.69 0 1.278-.187 1.764-.56l1.176 3.08Z" fill="#475467"/></svg><svg fill="none" viewBox="0 0 170 48" id="sisyphus" xmlns="http://www.w3.org/2000/svg"><path fill="#667085" d="M.75 19.2h9.6v9.6H.75zM29.55 28.8h-9.6v-9.6h9.6z"/><path d="m10.35 19.2 9.6-9.6v9.6l-9.6 9.6v-9.6Z" fill="#D0D5DD"/><path d="m19.95 28.8-9.6 9.6v-9.6l9.6-9.6v9.6Z" fill="#98A2B3"/><path d="M.75 19.2 19.95 0v9.6l-9.6 9.6H.75ZM29.55 28.8 10.35 48v-9.6l9.6-9.6h9.6Z" fill="#667085"/><path d="M50.458 34.28a15.09 15.09 0 0 1-4.396-.644c-1.4-.43-2.51-.999-3.332-1.708l1.26-2.828c.803.635 1.783 1.157 2.94 1.568 1.176.392 2.352.588 3.528.588 1.456 0 2.539-.233 3.248-.7.728-.467 1.092-1.083 1.092-1.848 0-.56-.205-1.017-.616-1.372-.392-.373-.896-.663-1.512-.868a34.07 34.07 0 0 0-2.52-.7c-1.493-.355-2.707-.71-3.64-1.064a6.162 6.162 0 0 1-2.38-1.652c-.653-.765-.98-1.792-.98-3.08 0-1.083.29-2.063.868-2.94.597-.896 1.484-1.605 2.66-2.128 1.195-.523 2.65-.784 4.368-.784 1.195 0 2.37.15 3.528.448 1.157.299 2.156.728 2.996 1.288l-1.148 2.828a11.33 11.33 0 0 0-2.688-1.148 10.057 10.057 0 0 0-2.716-.392c-1.437 0-2.51.243-3.22.728-.69.485-1.036 1.13-1.036 1.932 0 .56.196 1.017.588 1.372.41.355.924.635 1.54.84.616.205 1.456.439 2.52.7 1.456.336 2.65.69 3.584 1.064a5.9 5.9 0 0 1 2.38 1.652c.672.747 1.008 1.755 1.008 3.024a5.107 5.107 0 0 1-.896 2.94c-.579.877-1.465 1.577-2.66 2.1-1.195.523-2.65.784-4.368.784ZM61.655 19.048h3.5V34h-3.5V19.048Zm1.764-2.464c-.634 0-1.166-.196-1.596-.588a2.01 2.01 0 0 1-.644-1.512c0-.597.215-1.092.644-1.484.43-.41.962-.616 1.596-.616.635 0 1.167.196 1.596.588.43.373.644.85.644 1.428 0 .616-.214 1.139-.644 1.568-.41.41-.942.616-1.596.616ZM74.37 34.196c-1.214 0-2.4-.159-3.557-.476-1.157-.317-2.081-.719-2.772-1.204l1.344-2.66c.672.448 1.475.812 2.408 1.092.952.261 1.885.392 2.8.392 2.09 0 3.136-.55 3.136-1.652 0-.523-.27-.887-.812-1.092-.523-.205-1.372-.401-2.548-.588-1.232-.187-2.24-.401-3.024-.644a4.787 4.787 0 0 1-2.016-1.26c-.56-.616-.84-1.465-.84-2.548 0-1.419.588-2.548 1.764-3.388 1.195-.859 2.8-1.288 4.816-1.288 1.027 0 2.053.121 3.08.364 1.027.224 1.867.532 2.52.924l-1.344 2.66c-1.27-.747-2.697-1.12-4.284-1.12-1.027 0-1.81.159-2.352.476-.523.299-.784.7-.784 1.204 0 .56.28.961.84 1.204.579.224 1.465.439 2.66.644 1.195.187 2.175.401 2.94.644a4.502 4.502 0 0 1 1.96 1.232c.56.579.84 1.4.84 2.464 0 1.4-.607 2.52-1.82 3.36-1.213.84-2.865 1.26-4.956 1.26ZM97.886 19.048l-7 16.156c-.653 1.624-1.447 2.763-2.38 3.416-.933.672-2.063 1.008-3.388 1.008a6.953 6.953 0 0 1-2.212-.364c-.728-.243-1.326-.579-1.792-1.008l1.4-2.576c.336.317.728.57 1.176.756.466.187.933.28 1.4.28.616 0 1.12-.159 1.512-.476.41-.317.784-.85 1.12-1.596l.252-.588-6.524-15.008h3.64l4.704 11.06 4.732-11.06h3.36ZM108.361 18.88c1.456 0 2.754.317 3.892.952a6.834 6.834 0 0 1 2.716 2.688c.654 1.157.98 2.492.98 4.004 0 1.512-.326 2.856-.98 4.032a6.833 6.833 0 0 1-2.716 2.688c-1.138.635-2.436.952-3.892.952-2.016 0-3.612-.672-4.788-2.016v7.252h-3.5V19.048h3.332v1.96a5.44 5.44 0 0 1 2.128-1.596c.859-.355 1.802-.532 2.828-.532Zm-.392 12.32c1.288 0 2.343-.43 3.164-1.288.84-.859 1.26-1.988 1.26-3.388s-.42-2.53-1.26-3.388c-.821-.859-1.876-1.288-3.164-1.288-.84 0-1.596.196-2.268.588a4.052 4.052 0 0 0-1.596 1.624c-.392.71-.588 1.53-.588 2.464 0 .933.196 1.755.588 2.464.392.71.924 1.26 1.596 1.652.672.373 1.428.56 2.268.56ZM127.753 18.88c1.885 0 3.397.55 4.536 1.652 1.138 1.101 1.708 2.735 1.708 4.9V34h-3.5v-8.12c0-1.307-.308-2.287-.924-2.94-.616-.672-1.494-1.008-2.632-1.008-1.288 0-2.306.392-3.052 1.176-.747.765-1.12 1.876-1.12 3.332V34h-3.5V13.224h3.5v7.56a5.57 5.57 0 0 1 2.128-1.4c.858-.336 1.81-.504 2.856-.504ZM152.913 19.048V34h-3.332v-1.904a5.703 5.703 0 0 1-2.1 1.568 6.912 6.912 0 0 1-2.716.532c-1.998 0-3.575-.55-4.732-1.652-1.139-1.12-1.708-2.772-1.708-4.956v-8.54h3.5v8.064c0 1.344.298 2.352.896 3.024.616.653 1.484.98 2.604.98 1.25 0 2.24-.383 2.968-1.148.746-.784 1.12-1.904 1.12-3.36v-7.56h3.5ZM162.115 34.196c-1.213 0-2.399-.159-3.556-.476-1.157-.317-2.081-.719-2.772-1.204l1.344-2.66c.672.448 1.475.812 2.408 1.092.952.261 1.885.392 2.8.392 2.091 0 3.136-.55 3.136-1.652 0-.523-.271-.887-.812-1.092-.523-.205-1.372-.401-2.548-.588-1.232-.187-2.24-.401-3.024-.644a4.79 4.79 0 0 1-2.016-1.26c-.56-.616-.84-1.465-.84-2.548 0-1.419.588-2.548 1.764-3.388 1.195-.859 2.8-1.288 4.816-1.288 1.027 0 2.053.121 3.08.364 1.027.224 1.867.532 2.52.924l-1.344 2.66c-1.269-.747-2.697-1.12-4.284-1.12-1.027 0-1.811.159-2.352.476-.523.299-.784.7-.784 1.204 0 .56.28.961.84 1.204.579.224 1.465.439 2.66.644 1.195.187 2.175.401 2.94.644a4.502 4.502 0 0 1 1.96 1.232c.56.579.84 1.4.84 2.464 0 1.4-.607 2.52-1.82 3.36-1.213.84-2.865 1.26-4.956 1.26Z" fill="#475467"/></svg><svg viewBox="0 0 24 24" id="soc" xmlns="http://www.w3.org/2000/svg"><path fill-rule="evenodd" clip-rule="evenodd" d="M12 0C5.375 0 0 5.375 0 12s5.375 12 12 12c6.612 0 12-5.375 12-12S18.612 0 12 0Zm7.926 5.531a10.202 10.202 0 0 1 2.317 6.378c-.338-.065-3.722-.755-7.132-.325-.079-.17-.144-.352-.222-.534a30.53 30.53 0 0 0-.676-1.484c3.774-1.536 5.492-3.748 5.713-4.035ZM12 1.771c2.603 0 4.985.975 6.794 2.576-.182.26-1.731 2.33-5.375 3.696-1.68-3.084-3.54-5.61-3.827-6A10.424 10.424 0 0 1 12 1.77Zm-4.36.962c.273.365 2.095 2.903 3.8 5.922-4.79 1.276-9.02 1.25-9.475 1.25.664-3.176 2.812-5.818 5.675-7.172Zm-5.896 9.28v-.312c.443.013 5.414.078 10.53-1.458.299.573.572 1.158.832 1.744-.13.039-.273.078-.403.117-5.284 1.705-8.096 6.364-8.33 6.755a10.226 10.226 0 0 1-2.629-6.846ZM12 22.256c-2.369 0-4.555-.807-6.286-2.16.182-.378 2.264-4.387 8.043-6.404.026-.013.04-.013.065-.026 1.445 3.735 2.03 6.872 2.187 7.77-1.237.534-2.59.82-4.009.82Zm5.714-1.757c-.104-.625-.651-3.618-1.992-7.302 3.215-.507 6.026.326 6.378.443-.443 2.85-2.083 5.31-4.386 6.859Z"/></svg><svg viewBox="0 0 20 20" id="star" xmlns="http://www.w3.org/2000/svg"><g clip-path="url(#wa)"><path d="M9.538 1.61a.5.5 0 0 1 .924 0l2.066 4.967a.5.5 0 0 0 .421.307l5.363.43a.5.5 0 0 1 .286.878l-4.086 3.5a.5.5 0 0 0-.161.496l1.248 5.233a.5.5 0 0 1-.747.543l-4.591-2.805a.5.5 0 0 0-.522 0l-4.59 2.804a.5.5 0 0 1-.748-.542l1.248-5.233a.5.5 0 0 0-.16-.496l-4.087-3.5a.5.5 0 0 1 .286-.878l5.363-.43a.5.5 0 0 0 .421-.307L9.538 1.61Z"/></g><defs><clipPath id="wa"><path d="M0 0h20v20H0z"/></clipPath></defs></svg><svg fill="none" viewBox="0 0 39 39" id="talk" xmlns="http://www.w3.org/2000/svg"><path d="M34.135 19.353c0-8.098-6.565-14.663-14.663-14.663-8.099 0-14.663 6.565-14.663 14.663 0 8.098 6.564 14.662 14.663 14.662 8.098 0 14.663-6.564 14.663-14.662Z" fill="#fff"/><path d="M22.72 22.317s.044-.03.113-.083c1.032-.799 1.679-1.955 1.679-3.242 0-2.4-2.257-4.348-5.04-4.348s-5.041 1.947-5.041 4.348 2.257 4.282 5.04 4.282c.238 0 .628-.016 1.17-.047.706.459 1.738.835 2.64.835.28 0 .412-.229.233-.463-.273-.334-.648-.869-.793-1.283v0Z" stroke="#333461" stroke-width="2" stroke-linecap="round" stroke-linejoin="round"/><path d="M16.951 20.193a3.55 3.55 0 0 0 5.04 0" stroke="#20AD96" stroke-width="1.5" stroke-linecap="round" stroke-linejoin="round"/><path d="M34.135 19.353c0-8.098-6.565-14.663-14.663-14.663-8.099 0-14.663 6.565-14.663 14.663 0 8.098 6.564 14.662 14.663 14.662 8.098 0 14.663-6.564 14.663-14.662Z" stroke="#fff" stroke-width="8"/></svg><svg fill="none" viewBox="0 0 56 56" id="target" xmlns="http://www.w3.org/2000/svg"><g stroke-width="3" stroke-linecap="round" stroke-linejoin="round" clip-path="url(#ya)"><path d="M39.55 16.45c6.378 6.38 6.378 16.72 0 23.1-6.379 6.378-16.72 6.378-23.1 0-6.378-6.38-6.378-16.72 0-23.1 6.38-6.378 16.721-6.378 23.1 0Z" stroke="#20AD96"/><path d="M31.3 24.7a4.667 4.667 0 1 1-6.6 6.6 4.667 4.667 0 0 1 6.6-6.6" stroke="#333461"/><path d="M28 49v-9.333M28 7v9.333M16.333 28H7M49 28h-9.333" stroke="#20AD96"/></g><defs><clipPath id="ya"><path fill="#fff" d="M0 0h56v56H0z"/></clipPath></defs></svg></svg>